<svg xmlns="http://www.w3.org/2000/svg" xmlns:xlink="http://www.w3.org/1999/xlink" width="500" zoomAndPan="magnify" viewBox="0 0 375 374.999991" height="500" preserveAspectRatio="xMidYMid meet" version="1.0"><defs><clipPath id="7cfb8ddb80"><path d="M 95 12.03125 L 193 12.03125 L 193 153 L 95 153 Z M 95 12.03125 " clip-rule="nonzero"/></clipPath><clipPath id="d6a56ef760"><path d="M 186 12.03125 L 279 12.03125 L 279 156 L 186 156 Z M 186 12.03125 " clip-rule="nonzero"/></clipPath><clipPath id="7756730da8"><path d="M 82 309 L 250 309 L 250 363.03125 L 82 363.03125 Z M 82 309 " clip-rule="nonzero"/></clipPath></defs><path fill="#146356" d="M 155.921875 213.429688 C 157.363281 209.921875 155.714844 205.792969 152.207031 204.351562 C 148.699219 202.90625 144.78125 204.554688 143.335938 208.0625 C 137.558594 221.683594 132.402344 237.984375 128.894531 257.175781 C 125.390625 276.160156 123.53125 298.238281 124.152344 323.207031 C 124.359375 326.921875 127.453125 330.015625 131.164062 329.808594 C 135.085938 329.808594 137.972656 326.507812 137.972656 322.792969 C 137.148438 298.859375 139.003906 277.808594 142.304688 259.652344 C 145.605469 241.492188 150.558594 226.222656 155.921875 213.429688 Z M 155.921875 213.429688 " fill-opacity="1" fill-rule="nonzero"/><path fill="#146356" d="M 195.941406 187.429688 C 197.386719 183.921875 195.734375 180 192.226562 178.554688 C 188.722656 177.113281 184.800781 178.761719 183.359375 182.269531 C 179.027344 192.589844 174.898438 206.414062 175.3125 228.90625 C 175.726562 250.777344 180.261719 280.90625 193.261719 324.652344 C 194.292969 328.160156 198.210938 330.222656 201.71875 329.191406 C 205.429688 328.160156 207.492188 324.238281 206.460938 320.730469 C 193.671875 278.222656 189.339844 249.332031 188.925781 228.699219 C 188.722656 208.683594 192.433594 196.507812 195.941406 187.429688 Z M 195.941406 187.429688 " fill-opacity="1" fill-rule="nonzero"/><g clip-path="url(#7cfb8ddb80)"><path fill="#146356" d="M 106.617188 14.097656 C 118.582031 20.699219 130.546875 29.777344 141.273438 40.714844 C 152 51.652344 161.695312 64.238281 169.949219 78.683594 C 175.519531 88.382812 180.261719 98.285156 183.769531 108.191406 C 187.691406 118.300781 190.371094 128.414062 192.023438 138.316406 C 192.847656 142.238281 190.164062 145.746094 186.453125 146.367188 C 186.453125 146.367188 186.246094 146.367188 186.246094 146.367188 C 184.800781 146.777344 183.5625 147.191406 182.328125 148.015625 L 180.261719 144.300781 L 182.328125 148.015625 C 182.121094 148.015625 182.121094 148.015625 181.914062 148.015625 C 180.675781 148.84375 179.4375 149.667969 178.613281 150.699219 L 175.519531 147.808594 L 178.613281 150.699219 C 175.929688 153.382812 171.597656 153.589844 168.710938 150.90625 C 168.503906 150.492188 168.296875 150.082031 167.886719 149.875 C 163.347656 144.097656 157.984375 138.523438 152 133.160156 C 146.226562 127.792969 139.828125 122.84375 132.609375 118.097656 L 136.527344 112.320312 L 132.609375 118.097656 C 129.515625 115.828125 128.691406 111.699219 130.960938 108.398438 C 130.960938 108.191406 131.164062 107.984375 131.371094 107.777344 L 121.058594 104.683594 L 122.914062 98.082031 L 121.058594 104.683594 C 118.992188 104.066406 117.550781 102.828125 116.726562 101.175781 C 113.835938 95.605469 111.359375 90.238281 109.09375 84.667969 C 106.617188 78.890625 104.554688 73.113281 102.902344 67.539062 C 102.492188 65.890625 102.492188 64.238281 103.109375 62.792969 C 101.664062 61.761719 100.632812 60.320312 100.425781 58.460938 C 98.777344 51.859375 97.539062 45.460938 96.921875 39.066406 C 96.09375 32.460938 95.890625 26.066406 95.890625 19.667969 L 102.902344 19.875 L 95.890625 19.667969 C 96.09375 15.746094 99.191406 12.859375 103.109375 12.859375 C 104.347656 13.066406 105.585938 13.476562 106.617188 14.097656 Z M 131.578125 50.414062 C 124.5625 43.398438 117.34375 37.414062 110.125 32.253906 C 110.125 33.90625 110.328125 35.761719 110.535156 37.414062 C 111.15625 42.160156 111.980469 47.113281 113.011719 51.859375 L 123.738281 55.160156 C 126.007812 55.574219 128.070312 57.429688 128.894531 59.90625 C 129.925781 63.414062 127.863281 67.335938 124.152344 68.367188 L 122.292969 61.761719 L 124.152344 68.367188 L 118.167969 70.222656 C 119.199219 73.320312 120.4375 76.207031 121.675781 79.300781 C 123.53125 83.636719 125.390625 87.96875 127.660156 92.300781 L 155.300781 100.554688 C 157.777344 100.96875 159.632812 102.828125 160.460938 105.300781 C 161.492188 108.808594 159.425781 112.730469 155.714844 113.761719 L 153.859375 107.160156 L 155.714844 113.761719 L 151.792969 115 C 155.09375 117.476562 158.191406 120.160156 161.285156 123.046875 C 166.027344 127.382812 170.566406 131.921875 174.691406 136.460938 C 174.898438 136.253906 175.105469 136.253906 175.3125 136.046875 C 175.519531 136.046875 175.519531 135.84375 175.726562 135.84375 C 176.34375 135.636719 176.757812 135.222656 177.375 135.015625 C 175.929688 127.792969 173.660156 120.367188 170.980469 112.9375 C 167.472656 103.652344 163.347656 94.574219 158.191406 85.699219 C 150.351562 72.285156 141.273438 60.320312 131.578125 50.414062 Z M 106.617188 59.285156 L 107.234375 57.429688 Z M 106.617188 59.285156 " fill-opacity="1" fill-rule="nonzero"/></g><path fill="#146356" d="M 41.425781 74.96875 C 55.042969 74.554688 69.691406 76.621094 84.75 80.746094 C 99.191406 84.667969 114.042969 90.859375 128.484375 99.113281 C 138.59375 105.097656 147.875 111.492188 156.125 118.507812 C 164.792969 125.730469 172.425781 133.574219 179.027344 141.621094 L 173.660156 145.953125 L 179.027344 141.621094 C 181.292969 144.507812 180.882812 148.636719 178.199219 151.113281 C 177.375 151.9375 176.757812 152.761719 176.136719 153.792969 C 175.519531 155.03125 174.898438 156.269531 174.488281 157.507812 L 167.886719 155.445312 L 174.488281 157.507812 C 173.867188 160.191406 171.597656 162.046875 168.917969 162.253906 L 167.886719 162.667969 C 166.234375 163.082031 164.792969 162.875 163.347656 162.253906 C 156.332031 159.367188 148.699219 157.097656 140.65625 155.445312 C 132.816406 153.589844 124.359375 152.554688 115.898438 151.9375 L 116.3125 144.921875 L 115.898438 151.9375 C 111.980469 151.523438 109.296875 148.222656 109.503906 144.507812 C 109.503906 144.097656 109.503906 143.890625 109.710938 143.476562 L 98.984375 146.160156 C 96.921875 146.574219 95.0625 146.160156 93.414062 145.128906 C 88.257812 141.828125 83.304688 138.316406 78.558594 134.808594 C 73.816406 131.097656 69.070312 127.175781 64.738281 123.046875 C 63.5 122.015625 62.882812 120.367188 62.675781 118.921875 C 60.820312 118.714844 59.167969 117.890625 58.136719 116.445312 C 53.394531 111.492188 49.265625 106.539062 45.347656 101.382812 C 41.425781 96.015625 37.921875 90.652344 34.828125 85.082031 L 41.015625 81.777344 L 34.828125 85.082031 C 32.96875 81.777344 34.207031 77.445312 37.714844 75.792969 C 38.746094 74.96875 40.191406 74.761719 41.425781 74.96875 Z M 81.035156 93.953125 C 71.546875 91.269531 62.261719 89.621094 53.394531 89 C 54.21875 90.445312 55.25 91.683594 56.28125 93.128906 C 59.167969 97.046875 62.261719 100.761719 65.769531 104.476562 L 76.496094 101.792969 C 78.765625 101.175781 81.449219 101.589844 83.511719 103.445312 C 86.191406 105.921875 86.398438 110.460938 83.71875 113.144531 L 78.765625 108.398438 L 83.71875 113.144531 L 79.386719 117.683594 C 81.859375 119.746094 84.335938 121.808594 87.019531 123.875 C 90.730469 126.761719 94.652344 129.445312 98.570312 132.128906 L 126.625 125.320312 C 128.894531 124.699219 131.578125 125.113281 133.433594 126.96875 C 136.324219 129.445312 136.324219 133.984375 133.847656 136.667969 L 128.691406 131.921875 L 133.640625 136.667969 L 130.960938 139.761719 C 135.292969 140.382812 139.417969 141 143.75 142.03125 C 150.558594 143.476562 157.363281 145.539062 163.761719 147.808594 C 163.964844 147.398438 164.171875 147.191406 164.378906 146.984375 C 164.378906 146.574219 164.585938 146.367188 164.792969 146.160156 C 159.632812 140.175781 153.859375 134.398438 147.257812 129.03125 C 139.625 122.429688 130.960938 116.445312 121.675781 111.082031 C 108.265625 103.445312 94.652344 97.667969 81.035156 93.953125 Z M 81.035156 93.953125 " fill-opacity="1" fill-rule="nonzero"/><path fill="#146356" d="M 15.023438 160.191406 C 26.78125 153.175781 40.601562 147.398438 55.660156 143.476562 C 70.308594 139.761719 86.191406 137.699219 102.902344 137.699219 C 114.867188 137.699219 126.625 138.730469 137.765625 140.792969 C 149.320312 142.859375 160.253906 146.160156 170.15625 150.082031 L 167.679688 156.476562 L 170.359375 150.082031 C 173.660156 151.523438 175.3125 155.238281 174.28125 158.539062 C 174.074219 158.953125 174.074219 159.570312 174.074219 159.984375 C 173.867188 160.605469 173.867188 161.222656 173.867188 162.046875 C 173.867188 162.667969 173.867188 163.285156 174.074219 163.90625 C 174.074219 164.730469 174.28125 165.351562 174.28125 165.761719 C 175.3125 169.476562 173.042969 173.191406 169.328125 174.015625 C 168.917969 174.222656 168.296875 174.222656 167.886719 174.222656 L 167.472656 174.222656 L 167.472656 174.429688 C 167.265625 174.429688 167.265625 174.429688 167.058594 174.429688 L 166.441406 174.429688 C 166.234375 174.429688 166.027344 174.636719 165.824219 174.636719 C 165.410156 174.636719 164.996094 174.636719 164.585938 174.84375 C 156.953125 175.875 149.320312 177.730469 141.480469 180.207031 C 133.847656 182.683594 126.007812 185.777344 118.167969 189.492188 C 114.867188 191.351562 110.742188 189.90625 109.09375 186.398438 C 108.886719 186.191406 108.679688 185.777344 108.679688 185.570312 L 100.839844 193 L 96.09375 188.046875 L 100.839844 193 C 99.191406 194.445312 97.125 195.0625 95.269531 194.859375 C 89.082031 194.652344 83.304688 194.238281 77.527344 193.414062 C 71.132812 192.589844 65.359375 191.554688 59.582031 190.113281 L 61.230469 183.507812 L 59.582031 190.113281 C 57.929688 189.90625 56.691406 188.875 55.660156 187.636719 C 54.011719 188.460938 52.15625 188.460938 50.296875 187.636719 C 43.902344 185.777344 37.714844 183.714844 31.9375 181.03125 C 25.75 178.351562 19.972656 175.460938 14.609375 172.160156 L 18.324219 166.382812 L 14.609375 172.160156 C 11.515625 170.300781 10.484375 165.96875 12.339844 162.667969 C 13.164062 161.636719 13.992188 160.808594 15.023438 160.191406 Z M 59.167969 156.683594 C 49.679688 159.160156 40.601562 162.460938 32.558594 166.382812 C 34.207031 167.207031 35.652344 167.828125 37.300781 168.445312 C 41.632812 170.507812 46.378906 172.160156 51.125 173.605469 L 59.167969 165.96875 C 60.820312 164.113281 63.292969 163.285156 65.976562 163.90625 C 69.691406 164.730469 71.960938 168.445312 70.925781 172.160156 L 69.484375 178.144531 C 72.785156 178.761719 75.878906 179.382812 79.179688 179.792969 C 83.925781 180.414062 88.667969 180.828125 93.414062 181.03125 L 114.25 161.222656 C 115.898438 159.367188 118.582031 158.539062 121.058594 159.160156 C 124.769531 159.984375 127.039062 163.699219 126.007812 167.414062 L 125.183594 171.539062 C 129.101562 169.890625 133.226562 168.445312 137.355469 167.207031 C 145.191406 164.730469 152.828125 162.875 160.253906 161.636719 C 160.253906 161.429688 160.253906 161.222656 160.253906 161.015625 C 152.414062 158.128906 144.160156 155.859375 135.292969 154.207031 C 125.183594 152.351562 114.25 151.316406 102.902344 151.316406 C 87.226562 151.316406 72.578125 153.382812 59.167969 156.683594 Z M 54.425781 182.890625 L 52.980469 181.445312 Z M 54.425781 182.890625 " fill-opacity="1" fill-rule="nonzero"/><path fill="#146356" d="M 35.238281 247.0625 C 41.839844 235.097656 50.917969 223.335938 61.851562 212.398438 C 72.578125 201.875 85.367188 192.175781 99.808594 183.714844 L 103.316406 189.699219 L 99.808594 183.714844 C 100.015625 183.714844 100.222656 183.507812 100.425781 183.507812 C 111.15625 177.316406 122.089844 172.367188 132.816406 168.652344 C 144.367188 164.730469 155.921875 161.84375 166.855469 160.605469 C 170.566406 160.191406 173.867188 162.667969 174.488281 166.175781 C 174.898438 168.03125 175.726562 169.890625 176.960938 171.335938 C 178.199219 172.984375 179.644531 174.429688 181.5 175.667969 L 177.789062 181.445312 L 181.5 175.667969 C 184.59375 177.523438 185.625 181.859375 183.5625 185.160156 C 183.359375 185.367188 183.152344 185.570312 182.945312 185.777344 C 182.121094 187.015625 181.292969 188.253906 180.46875 189.285156 C 179.4375 190.523438 178.613281 191.761719 177.375 193 L 172.21875 188.667969 L 177.375 193 C 175.726562 195.0625 172.835938 195.890625 170.359375 195.269531 L 168.296875 201.667969 L 161.902344 199.808594 L 168.296875 201.667969 C 168.09375 203.113281 167.265625 204.144531 166.234375 204.96875 C 162.109375 209.097656 157.777344 212.808594 153.238281 216.523438 C 148.699219 220.238281 143.75 223.953125 138.386719 227.460938 C 135.292969 229.523438 130.960938 228.699219 128.894531 225.398438 C 128.691406 224.984375 128.484375 224.570312 128.277344 224.160156 L 125.800781 232.824219 L 119.199219 230.96875 L 125.800781 232.824219 C 125.183594 234.683594 123.738281 236.128906 122.089844 236.953125 C 116.726562 239.84375 111.359375 242.523438 105.585938 244.792969 C 100.015625 247.269531 94.238281 249.128906 88.667969 250.984375 C 87.019531 251.398438 85.367188 251.191406 83.925781 250.570312 C 82.894531 252.015625 81.242188 253.046875 79.59375 253.460938 C 72.992188 254.90625 66.390625 256.144531 60.199219 256.96875 C 53.597656 257.589844 46.996094 258 40.808594 257.792969 L 41.015625 250.984375 L 40.808594 257.792969 C 36.890625 257.792969 34 254.492188 34 250.777344 C 34 249.539062 34.414062 248.097656 35.238281 247.0625 Z M 71.546875 222.300781 C 64.53125 229.113281 58.34375 236.332031 53.394531 243.761719 C 55.042969 243.554688 56.691406 243.554688 58.550781 243.351562 C 63.292969 242.730469 68.039062 241.90625 72.992188 240.875 L 76.085938 230.144531 C 76.703125 227.667969 78.355469 225.605469 80.828125 224.984375 C 84.542969 223.953125 88.460938 226.015625 89.492188 229.523438 L 82.894531 231.589844 L 89.492188 229.523438 L 91.144531 235.714844 C 94.238281 234.476562 97.332031 233.445312 100.425781 232.207031 C 104.761719 230.351562 109.09375 228.285156 113.425781 226.222656 L 121.46875 198.367188 C 122.089844 196.097656 123.738281 194.03125 126.421875 193.414062 C 129.925781 192.175781 133.847656 194.445312 134.878906 197.953125 L 128.277344 200.015625 L 134.878906 197.953125 L 138.59375 210.539062 C 140.65625 209.097656 142.71875 207.445312 144.574219 206 C 148.492188 202.699219 152.207031 199.398438 155.714844 196.097656 L 161.902344 175.253906 C 153.859375 176.492188 145.605469 178.761719 137.355469 181.652344 C 127.246094 185.160156 117.136719 189.699219 107.234375 195.269531 C 107.027344 195.476562 106.824219 195.683594 106.617188 195.683594 C 93.207031 203.523438 81.449219 212.398438 71.546875 222.300781 Z M 80.417969 247.269531 L 78.355469 246.652344 Z M 80.417969 247.269531 " fill-opacity="1" fill-rule="nonzero"/><path fill="#146356" d="M 268.144531 318.667969 C 256.179688 312.0625 244.421875 302.984375 233.488281 291.839844 C 222.964844 281.113281 213.269531 268.316406 204.8125 254.078125 L 210.792969 250.570312 L 204.8125 254.078125 C 204.8125 253.875 204.605469 253.667969 204.605469 253.460938 C 198.210938 242.523438 193.261719 231.175781 189.339844 220.238281 C 185.421875 208.476562 182.738281 196.921875 181.5 185.570312 C 181.089844 181.859375 183.769531 178.351562 187.484375 177.9375 C 188.101562 177.9375 188.722656 177.9375 189.132812 177.9375 L 189.339844 177.9375 C 189.546875 177.9375 189.339844 177.9375 189.960938 177.9375 C 192.023438 177.9375 194.085938 177.523438 195.941406 176.90625 C 197.796875 176.082031 199.449219 175.046875 201.097656 173.605469 L 200.894531 173.605469 C 203.574219 170.921875 207.699219 170.921875 210.382812 173.398438 C 211 174.015625 211.621094 174.429688 212.03125 174.636719 C 213.0625 175.460938 213.683594 176.082031 214.09375 176.285156 L 212.652344 177.9375 L 214.09375 176.285156 C 216.160156 178.144531 216.984375 180.828125 216.160156 183.507812 L 222.761719 185.367188 L 220.902344 191.96875 L 222.761719 185.367188 C 224.203125 185.777344 225.234375 186.605469 226.058594 187.636719 C 229.980469 191.554688 233.898438 195.890625 237.613281 200.636719 C 241.328125 205.175781 244.832031 210.128906 248.339844 215.285156 C 250.609375 218.382812 249.578125 222.714844 246.484375 224.777344 C 246.070312 225.191406 245.660156 225.398438 245.246094 225.605469 L 253.910156 228.078125 L 251.847656 234.683594 L 253.910156 228.078125 C 255.765625 228.699219 257.210938 229.9375 258.035156 231.589844 C 260.925781 236.953125 263.605469 242.523438 265.875 248.097656 C 268.144531 253.875 270.207031 259.652344 271.859375 265.222656 C 272.476562 266.667969 272.269531 268.316406 271.652344 269.761719 C 273.09375 270.792969 274.125 272.445312 274.332031 274.300781 C 275.984375 280.90625 277.222656 287.300781 278.046875 293.699219 C 278.664062 300.300781 279.078125 306.699219 278.871094 313.09375 L 272.0625 312.890625 L 278.871094 313.09375 C 278.871094 316.808594 275.570312 319.90625 271.859375 319.699219 C 270.414062 319.699219 269.175781 319.285156 268.144531 318.667969 Z M 243.183594 282.351562 C 250.195312 289.367188 257.417969 295.351562 264.84375 300.507812 C 264.636719 298.652344 264.429688 297 264.226562 295.351562 C 263.8125 290.605469 262.988281 285.652344 261.957031 280.90625 L 251.023438 277.605469 C 248.753906 277.191406 246.691406 275.332031 246.070312 272.859375 C 244.832031 269.144531 246.894531 265.429688 250.609375 264.398438 L 252.671875 271 L 250.609375 264.398438 L 256.59375 262.539062 C 255.558594 259.445312 254.324219 256.351562 253.085938 253.460938 C 251.433594 249.128906 249.371094 244.792969 247.101562 240.460938 L 219.460938 232.207031 C 217.191406 231.792969 215.125 229.9375 214.300781 227.460938 C 213.269531 223.746094 215.332031 220.03125 219.046875 219 L 220.902344 225.605469 L 219.046875 219 L 231.628906 215.285156 C 230.1875 213.222656 228.535156 211.160156 226.886719 209.097656 C 223.792969 205.175781 220.492188 201.460938 217.191406 197.953125 L 196.148438 191.761719 C 197.59375 199.605469 199.65625 207.652344 202.335938 215.699219 C 206.050781 226.015625 210.589844 236.539062 216.363281 246.652344 C 216.570312 246.652344 216.570312 246.859375 216.777344 247.0625 C 224.410156 260.476562 233.488281 272.238281 243.183594 282.351562 Z M 268.144531 273.476562 L 267.730469 275.332031 Z M 268.144531 273.476562 " fill-opacity="1" fill-rule="nonzero"/><path fill="#146356" d="M 333.539062 257.792969 C 319.71875 258.207031 305.070312 256.144531 290.011719 252.015625 C 275.570312 248.097656 260.71875 241.90625 246.277344 233.445312 L 249.785156 227.667969 L 246.277344 233.445312 C 246.070312 233.445312 246.070312 233.445312 245.863281 233.238281 C 244.007812 232.207031 242.152344 230.96875 240.292969 229.9375 C 238.230469 228.699219 236.375 227.253906 234.519531 226.015625 L 236.789062 222.507812 L 234.519531 226.015625 C 231.21875 223.953125 230.394531 219.621094 232.660156 216.523438 C 230.804688 214.046875 228.949219 211.570312 226.886719 209.097656 C 223.792969 205.175781 220.492188 201.460938 217.191406 197.953125 L 198.625 192.589844 L 200.273438 187.015625 L 198.625 192.589844 C 196.972656 192.175781 195.734375 191.144531 194.910156 189.90625 L 194.703125 189.492188 L 194.496094 189.492188 C 194.496094 189.492188 194.496094 189.285156 194.292969 189.285156 L 194.085938 188.875 C 191.609375 185.777344 192.226562 181.445312 195.117188 179.175781 C 195.941406 178.554688 196.972656 178.144531 198.003906 177.9375 L 199.035156 177.523438 C 199.035156 176.492188 199.65625 175.253906 200.273438 174.222656 C 200.6875 173.808594 200.894531 173.605469 201.304688 173.191406 L 201.511719 173.191406 L 201.511719 172.984375 C 201.511719 172.984375 201.71875 172.777344 201.71875 172.777344 L 201.925781 172.570312 C 202.335938 172.160156 202.75 171.746094 203.367188 171.335938 C 203.574219 170.507812 203.78125 169.890625 204.191406 169.269531 C 204.398438 168.859375 204.605469 168.445312 204.8125 168.03125 C 205.019531 167.414062 205.226562 166.792969 205.429688 166.175781 L 206.460938 166.589844 L 205.226562 166.175781 C 206.257812 162.667969 209.96875 160.605469 213.476562 161.429688 L 214.09375 161.429688 L 214.09375 161.636719 L 214.300781 161.429688 C 214.300781 161.429688 214.507812 161.429688 214.714844 161.636719 L 215.332031 161.636719 L 215.332031 161.84375 L 215.332031 161.636719 C 218.222656 162.046875 220.285156 164.113281 220.902344 166.792969 L 227.503906 165.144531 C 228.949219 164.730469 230.394531 164.9375 231.425781 165.351562 C 236.992188 166.792969 242.5625 168.652344 247.925781 170.921875 C 253.496094 172.984375 259.066406 175.460938 264.636719 178.351562 L 261.542969 184.335938 L 264.636719 178.144531 C 268.144531 180 269.589844 184.128906 267.730469 187.429688 C 267.527344 187.84375 267.320312 188.253906 266.90625 188.667969 L 275.777344 186.605469 C 277.839844 186.191406 279.902344 186.605469 281.347656 187.636719 C 286.503906 190.9375 291.457031 194.238281 296.199219 197.953125 C 301.152344 201.667969 305.691406 205.589844 310.023438 209.714844 C 311.257812 210.746094 311.878906 212.191406 312.085938 213.84375 C 313.941406 214.046875 315.59375 214.875 316.625 216.316406 C 321.367188 221.0625 325.699219 226.222656 329.414062 231.382812 C 333.332031 236.746094 336.839844 242.113281 339.933594 247.683594 L 333.953125 250.984375 L 339.933594 247.683594 C 341.792969 250.984375 340.554688 255.113281 337.253906 256.96875 C 336.015625 257.589844 334.777344 258 333.539062 257.792969 Z M 293.726562 238.808594 C 303.214844 241.492188 312.496094 243.144531 321.574219 243.761719 C 320.542969 242.316406 319.511719 240.875 318.480469 239.636719 C 315.59375 235.714844 312.496094 232 309.195312 228.285156 L 298.261719 230.761719 C 295.992188 231.589844 293.3125 231.175781 291.457031 229.316406 C 288.566406 226.636719 288.566406 222.300781 291.042969 219.621094 L 296.199219 224.367188 L 291.25 219.621094 L 295.582031 215.078125 C 293.105469 213.015625 290.425781 210.953125 287.949219 208.890625 C 284.234375 206 280.316406 203.316406 276.191406 200.636719 L 248.339844 207.238281 C 246.277344 208.0625 244.007812 207.652344 242.152344 206.621094 C 244.214844 209.097656 246.070312 211.984375 247.925781 214.667969 C 248.546875 215.492188 248.960938 216.316406 249.371094 217.144531 C 249.578125 217.96875 249.578125 218.792969 249.578125 219.414062 C 250.609375 220.238281 251.640625 220.859375 252.878906 221.476562 C 252.878906 221.476562 253.085938 221.476562 253.085938 221.683594 C 266.492188 229.316406 280.316406 235.097656 293.726562 238.808594 Z M 237.613281 200.636719 C 238.230469 201.253906 238.851562 202.082031 239.46875 202.90625 C 238.851562 200.636719 239.261719 197.953125 241.121094 196.097656 L 246.070312 200.84375 L 241.121094 196.097656 L 250.195312 186.605469 C 247.722656 185.570312 245.453125 184.539062 242.976562 183.714844 C 238.4375 181.859375 233.691406 180.207031 228.949219 178.96875 L 216.570312 181.859375 C 216.363281 182.476562 216.363281 182.890625 216.160156 183.507812 L 222.347656 185.160156 C 223.585938 185.570312 224.824219 186.191406 225.648438 187.222656 L 220.902344 191.96875 L 225.648438 187.222656 C 229.773438 191.351562 233.898438 195.890625 237.613281 200.636719 Z M 237.613281 200.636719 " fill-opacity="1" fill-rule="nonzero"/><path fill="#146356" d="M 359.738281 172.570312 C 347.980469 179.589844 334.363281 185.367188 319.097656 189.285156 C 304.453125 193 288.566406 195.0625 272.0625 195.0625 C 270 195.0625 267.730469 195.0625 265.050781 194.859375 C 264.84375 194.859375 264.636719 194.859375 264.429688 194.859375 C 261.957031 194.859375 259.894531 194.652344 258.035156 194.652344 L 258.242188 190.316406 L 258.035156 194.652344 C 254.117188 194.238281 251.433594 190.9375 251.640625 187.222656 C 248.753906 185.984375 245.863281 184.746094 242.976562 183.714844 C 238.4375 181.859375 233.691406 180.207031 228.949219 178.96875 L 210.175781 183.507812 C 208.730469 183.921875 207.082031 183.714844 205.84375 183.097656 L 205.226562 182.890625 C 201.511719 181.445312 199.859375 177.523438 201.304688 173.808594 C 201.511719 172.984375 202.128906 172.367188 202.542969 171.746094 C 202.75 171.539062 202.957031 171.128906 203.160156 170.921875 C 203.574219 170.507812 203.78125 170.097656 203.988281 169.683594 C 204.191406 169.0625 204.605469 168.652344 205.019531 168.03125 C 205.019531 167.828125 205.019531 167.414062 205.226562 167 C 205.226562 166.589844 205.429688 166.175781 205.429688 165.761719 C 205.636719 165.351562 205.636719 164.9375 205.636719 164.523438 C 205.84375 163.90625 205.84375 163.285156 205.84375 162.667969 L 207.492188 162.875 L 205.84375 162.667969 C 205.84375 161.636719 206.257812 160.605469 206.667969 159.777344 C 206.050781 158.953125 205.429688 157.921875 205.019531 156.890625 C 203.988281 153.382812 205.84375 149.460938 209.351562 148.222656 C 212.03125 147.398438 214.714844 148.015625 216.570312 149.875 L 221.523438 145.335938 L 226.265625 150.285156 L 221.523438 145.128906 C 222.554688 144.300781 223.792969 143.683594 225.027344 143.476562 C 230.597656 142.03125 236.375 140.792969 242.152344 139.96875 C 248.132812 138.9375 254.117188 138.316406 260.304688 137.90625 C 264.019531 137.699219 267.320312 140.589844 267.527344 144.507812 C 267.527344 144.921875 267.527344 145.539062 267.527344 145.953125 L 274.125 139.761719 L 278.871094 144.714844 L 274.125 139.554688 C 275.570312 138.113281 277.632812 137.492188 279.695312 137.90625 C 285.679688 138.113281 291.660156 138.523438 297.4375 139.351562 C 303.625 140.175781 309.609375 141.207031 315.179688 142.445312 L 313.734375 149.253906 L 315.179688 142.445312 C 316.828125 142.859375 318.273438 143.890625 319.097656 145.128906 C 320.75 144.300781 322.8125 144.300781 324.460938 144.921875 C 330.859375 146.777344 337.046875 149.046875 342.824219 151.523438 C 349.011719 154.207031 354.789062 157.300781 360.152344 160.605469 L 356.644531 166.382812 L 360.152344 160.398438 C 363.453125 162.460938 364.484375 166.792969 362.421875 169.890625 C 361.800781 171.128906 360.769531 171.953125 359.738281 172.570312 Z M 315.796875 175.875 C 325.289062 173.398438 334.160156 170.300781 342.203125 166.382812 C 340.757812 165.554688 339.109375 164.9375 337.460938 164.113281 C 333.125 162.253906 328.589844 160.605469 323.84375 159.160156 L 315.59375 166.792969 C 313.941406 168.652344 311.464844 169.476562 308.992188 168.859375 C 305.277344 168.03125 303.007812 164.316406 303.832031 160.605469 L 305.277344 154.414062 C 302.183594 153.792969 298.882812 153.382812 295.582031 152.96875 C 291.042969 152.351562 286.296875 151.9375 281.347656 151.523438 L 260.511719 171.539062 C 259.066406 172.984375 257.003906 173.808594 254.941406 173.808594 C 258.035156 175.046875 261.128906 176.492188 264.019531 177.9375 C 264.84375 178.351562 265.667969 178.761719 266.289062 179.382812 C 266.90625 180 267.527344 180.621094 267.730469 181.238281 C 268.96875 181.238281 270.414062 181.238281 272.0625 181.238281 C 287.535156 181.238281 302.390625 179.382812 315.796875 175.875 Z M 247.925781 170.921875 C 248.960938 171.128906 249.992188 171.539062 250.816406 171.953125 C 248.960938 170.300781 248.132812 167.828125 248.753906 165.144531 L 248.753906 165.351562 L 251.847656 152.554688 C 249.164062 152.761719 246.691406 153.175781 244.214844 153.589844 C 239.261719 154.207031 234.519531 155.238281 229.773438 156.476562 L 220.285156 165.351562 C 220.695312 165.761719 220.695312 166.175781 220.902344 166.792969 L 226.886719 165.351562 C 228.125 164.9375 229.566406 164.730469 231.011719 165.144531 L 229.15625 171.746094 L 231.011719 165.144531 C 236.582031 166.792969 242.359375 168.652344 247.925781 170.921875 Z M 320.542969 149.875 L 321.988281 151.316406 Z M 320.542969 149.875 " fill-opacity="1" fill-rule="nonzero"/><path fill="#146356" d="M 339.726562 85.492188 C 333.125 97.667969 324.050781 109.429688 312.910156 120.160156 C 302.183594 130.890625 289.394531 140.589844 274.953125 148.84375 C 272.683594 150.285156 270.621094 151.316406 268.96875 152.351562 C 267.113281 153.382812 264.84375 154.414062 262.574219 155.445312 C 259.273438 157.097656 255.148438 155.652344 253.496094 152.351562 C 250.402344 152.554688 247.308594 152.96875 244.214844 153.589844 C 239.261719 154.207031 234.519531 155.238281 229.773438 156.476562 L 217.394531 168.03125 L 212.652344 163.082031 L 217.394531 168.03125 C 214.714844 170.714844 210.382812 170.507812 207.699219 167.828125 C 206.257812 166.382812 205.636719 164.316406 205.84375 162.253906 L 205.84375 162.046875 C 205.84375 161.015625 205.84375 160.191406 205.636719 159.570312 L 206.460938 159.367188 L 205.636719 159.570312 C 205.636719 159.367188 205.636719 159.160156 205.636719 158.953125 C 205.429688 158.539062 205.429688 157.921875 205.226562 157.300781 L 205.226562 157.097656 L 205.019531 157.097656 C 205.019531 156.890625 205.019531 156.683594 205.019531 156.476562 C 204.8125 155.859375 204.398438 155.238281 204.191406 154.621094 C 203.78125 154 203.367188 153.175781 202.957031 152.554688 L 202.75 152.554688 C 201.511719 150.699219 201.097656 148.222656 201.925781 146.160156 L 206.460938 130.890625 L 213.0625 132.953125 L 206.460938 130.890625 C 206.875 129.652344 207.699219 128.414062 208.527344 127.589844 C 212.652344 123.667969 216.984375 119.746094 221.523438 116.03125 C 226.265625 112.320312 231.21875 108.808594 236.375 105.300781 C 239.46875 103.238281 243.800781 104.066406 245.863281 107.367188 C 246.070312 107.777344 246.277344 108.191406 246.484375 108.605469 L 249.164062 99.9375 L 255.765625 101.792969 L 249.164062 99.9375 C 249.785156 98.082031 251.023438 96.429688 252.671875 95.605469 C 258.035156 92.714844 263.605469 90.238281 269.175781 87.96875 C 274.953125 85.492188 280.523438 83.429688 286.09375 81.777344 C 287.742188 81.367188 289.394531 81.367188 290.835938 81.984375 C 291.867188 80.539062 293.519531 79.714844 295.167969 79.300781 C 301.769531 77.652344 308.371094 76.621094 314.765625 75.792969 C 321.367188 74.96875 327.761719 74.761719 334.160156 74.96875 L 333.953125 81.777344 L 334.160156 74.96875 C 337.871094 74.96875 340.964844 78.066406 340.757812 81.984375 C 340.757812 83.222656 340.347656 84.460938 339.726562 85.492188 Z M 303.421875 110.460938 C 310.226562 103.652344 316.417969 96.429688 321.574219 89 C 319.71875 89 318.066406 89.207031 316.210938 89.414062 C 311.464844 90.03125 306.722656 90.859375 301.769531 91.890625 L 298.675781 102.621094 C 298.058594 105.097656 296.40625 106.953125 293.929688 107.777344 C 290.21875 108.808594 286.503906 106.746094 285.265625 103.03125 L 291.867188 101.175781 L 285.472656 103.03125 L 283.617188 97.046875 C 280.523438 98.082031 277.425781 99.320312 274.332031 100.554688 C 270.207031 102.414062 265.875 104.269531 261.542969 106.539062 L 253.292969 134.191406 C 252.878906 136.253906 251.433594 137.90625 249.578125 138.9375 C 253.085938 138.523438 256.386719 138.316406 259.894531 138.113281 C 260.71875 137.90625 261.542969 137.90625 262.367188 138.113281 C 263.191406 138.316406 263.8125 138.730469 264.429688 139.144531 C 265.875 138.316406 267.113281 137.699219 268.144531 137.082031 C 281.554688 129.238281 293.3125 120.160156 303.421875 110.460938 Z M 242.152344 139.96875 C 243.183594 139.761719 244.214844 139.554688 245.246094 139.554688 C 242.769531 138.9375 240.707031 137.285156 239.882812 134.808594 L 246.484375 132.746094 L 239.882812 134.808594 L 236.167969 122.222656 C 234.105469 123.667969 232.25 125.113281 230.1875 126.761719 C 226.265625 130.0625 222.554688 133.160156 219.046875 136.667969 L 215.953125 147.605469 C 215.953125 147.808594 216.160156 148.015625 216.363281 148.429688 C 216.570312 148.84375 216.777344 149.253906 216.984375 149.667969 L 221.316406 145.539062 C 222.140625 144.714844 223.171875 143.890625 224.617188 143.476562 L 226.265625 150.285156 L 224.617188 143.476562 C 230.1875 142.03125 236.167969 140.792969 242.152344 139.96875 Z M 294.34375 85.492188 L 296.40625 86.113281 Z M 294.34375 85.492188 " fill-opacity="1" fill-rule="nonzero"/><g clip-path="url(#d6a56ef760)"><path fill="#146356" d="M 278.871094 20.285156 C 279.078125 33.90625 277.222656 48.761719 273.09375 63.621094 C 268.96875 78.269531 262.78125 92.921875 254.527344 107.367188 L 248.546875 104.066406 L 254.527344 107.367188 C 254.527344 107.574219 254.324219 107.777344 254.324219 107.777344 C 253.085938 109.84375 252.054688 111.699219 251.023438 113.351562 C 249.578125 115.414062 248.339844 117.476562 247.101562 119.335938 L 243.59375 117.0625 L 247.101562 119.335938 C 245.039062 122.429688 240.707031 123.253906 237.613281 121.191406 C 235.136719 123.046875 232.660156 124.90625 230.1875 126.761719 C 226.265625 130.0625 222.554688 133.160156 219.046875 136.667969 L 214.921875 150.492188 L 208.320312 148.636719 L 214.921875 150.492188 C 213.890625 154.207031 210.175781 156.269531 206.460938 155.238281 C 204.8125 154.621094 203.367188 153.589844 202.542969 152.144531 C 201.511719 150.90625 200.480469 149.875 199.242188 149.046875 C 197.796875 148.015625 196.355469 147.191406 194.703125 146.777344 L 194.496094 146.777344 C 192.023438 145.953125 190.164062 143.683594 189.753906 141.207031 L 186.246094 126.144531 C 185.832031 124.90625 186.039062 123.460938 186.453125 122.222656 C 187.894531 116.859375 189.753906 111.285156 191.816406 105.714844 C 194.085938 100.144531 196.558594 94.574219 199.242188 89 L 205.429688 92.097656 L 199.242188 89 C 200.894531 85.699219 205.226562 84.253906 208.527344 85.90625 C 208.9375 86.113281 209.351562 86.523438 209.761719 86.730469 L 207.699219 77.859375 C 207.082031 76 207.492188 73.9375 208.730469 72.285156 C 212.03125 67.128906 215.332031 62.175781 219.046875 57.636719 C 222.761719 52.683594 226.679688 48.144531 230.597656 43.8125 C 231.835938 42.574219 233.28125 41.746094 234.929688 41.539062 C 235.136719 39.890625 235.960938 38.238281 237.40625 37 C 242.152344 32.460938 247.308594 28.128906 252.464844 24.207031 C 257.828125 20.285156 263.191406 16.777344 268.761719 13.890625 L 272.0625 19.875 L 268.761719 13.683594 C 272.0625 12.03125 276.191406 13.269531 278.046875 16.574219 C 278.664062 17.8125 278.871094 19.046875 278.871094 20.285156 Z M 259.894531 59.90625 C 262.574219 50.621094 264.226562 41.128906 264.84375 32.253906 C 263.398438 33.285156 261.957031 34.320312 260.511719 35.351562 C 256.796875 38.03125 252.878906 41.335938 249.371094 44.636719 L 251.847656 55.367188 C 252.671875 57.84375 252.261719 60.523438 250.402344 62.382812 C 247.722656 65.066406 243.390625 65.269531 240.707031 62.589844 L 245.453125 57.636719 L 240.707031 62.589844 L 236.167969 58.253906 C 233.898438 60.730469 231.835938 63.207031 229.980469 65.890625 C 227.09375 69.605469 224.203125 73.523438 221.726562 77.652344 L 228.328125 105.507812 C 228.949219 107.367188 228.742188 109.636719 227.503906 111.492188 C 230.1875 109.636719 232.867188 107.574219 235.757812 105.714844 C 236.582031 105.097656 237.199219 104.683594 238.230469 104.476562 C 239.058594 104.269531 239.675781 104.066406 240.5 104.269531 C 241.121094 103.03125 241.738281 102 242.359375 100.96875 C 242.5625 100.761719 242.5625 100.761719 242.5625 100.554688 L 242.769531 100.554688 C 250.402344 87.144531 256.179688 73.523438 259.894531 59.90625 Z M 221.523438 116.03125 C 222.347656 115.414062 223.171875 114.792969 223.996094 114.175781 C 221.726562 115 219.046875 114.382812 217.191406 112.730469 L 221.933594 107.777344 L 217.191406 112.730469 L 207.699219 103.652344 C 206.667969 105.921875 205.636719 108.398438 204.605469 110.667969 C 202.957031 115.414062 201.304688 120.160156 199.859375 124.699219 L 202.335938 135.015625 C 203.367188 135.429688 203.988281 135.84375 204.8125 136.253906 L 206.257812 131.507812 C 206.667969 130.269531 207.289062 129.03125 208.113281 128 L 213.0625 132.953125 L 208.320312 128 C 212.445312 123.875 216.777344 119.953125 221.523438 116.03125 Z M 221.523438 116.03125 " fill-opacity="1" fill-rule="nonzero"/></g><path fill="#146356" d="M 189.960938 132.335938 C 198.210938 132.335938 205.636719 135.636719 211 141 C 216.363281 146.367188 219.664062 153.792969 219.664062 162.046875 C 219.664062 170.300781 216.363281 177.730469 211 183.097656 C 205.636719 188.460938 198.210938 191.761719 189.960938 191.761719 C 181.707031 191.761719 174.28125 188.460938 168.917969 183.097656 C 163.554688 177.730469 160.253906 170.300781 160.253906 162.046875 C 160.253906 153.792969 163.554688 146.367188 168.917969 141 C 174.28125 135.636719 181.707031 132.335938 189.960938 132.335938 Z M 201.304688 150.699219 C 198.417969 147.808594 194.292969 145.953125 189.960938 145.953125 C 185.421875 145.953125 181.5 147.808594 178.613281 150.699219 C 175.726562 153.589844 173.867188 157.507812 173.867188 162.046875 C 173.867188 166.382812 175.726562 170.507812 178.613281 173.398438 C 181.5 176.285156 185.421875 177.9375 189.960938 177.9375 C 194.292969 177.9375 198.417969 176.285156 201.304688 173.398438 C 204.191406 170.507812 205.84375 166.382812 205.84375 162.046875 C 205.84375 157.507812 204.191406 153.589844 201.304688 150.699219 Z M 201.304688 150.699219 " fill-opacity="1" fill-rule="nonzero"/><g clip-path="url(#7756730da8)"><path fill="#146356" d="M 166.027344 309.382812 C 182.53125 309.382812 198.210938 313.507812 212.238281 320.730469 C 226.472656 328.160156 238.851562 339.09375 247.925781 352.300781 L 248.132812 352.09375 C 250.195312 355.398438 249.371094 359.523438 246.277344 361.792969 C 245.039062 362.621094 243.800781 363.03125 242.359375 363.03125 L 89.492188 363.03125 C 85.78125 363.03125 82.6875 359.9375 82.6875 356.222656 C 82.6875 354.367188 83.304688 352.921875 84.335938 351.683594 C 93.414062 338.683594 105.585938 328.160156 119.820312 320.730469 C 133.640625 313.507812 149.320312 309.382812 166.027344 309.382812 Z M 205.84375 332.90625 C 193.878906 326.714844 180.46875 323.207031 166.027344 323.207031 C 151.589844 323.207031 137.972656 326.714844 126.007812 332.90625 C 117.757812 337.03125 110.328125 342.605469 103.933594 349.207031 L 227.917969 349.207031 C 221.523438 342.605469 214.09375 337.03125 205.84375 332.90625 Z M 205.84375 332.90625 " fill-opacity="1" fill-rule="nonzero"/></g></svg>